<svg width="152" height="110" viewBox="0 0 152 110" fill="none" xmlns="http://www.w3.org/2000/svg">
<path d="M3.9829 0C1.79511 0 0 1.78914 0 3.96964V87.8353C0 90.0158 1.79511 91.8049 3.9829 91.8049H103.443V0H3.9829ZM91.158 69.2357C91.158 70.6894 89.9612 71.8822 88.5027 71.8822H14.9593C13.5007 71.8822 12.304 70.6894 12.304 69.2357V22.5878C12.304 21.1341 13.5007 19.9414 14.9593 19.9414H88.5027C89.9612 19.9414 91.158 21.1341 91.158 22.5878V69.2357Z" fill="#EA5541"/>
<path d="M147.33 0H111.428V91.8049H147.349C149.536 91.8049 151.332 90.0158 151.332 87.8353V3.96964C151.313 1.78914 149.518 0 147.33 0ZM131.361 79.8773C126.107 79.8773 121.862 75.6468 121.862 70.4098C121.862 65.1729 126.107 60.9423 131.361 60.9423C136.615 60.9423 140.86 65.1729 140.86 70.4098C140.86 75.6468 136.615 79.8773 131.361 79.8773ZM141.963 51.7917H120.777V37.9632H141.963V51.7917ZM141.963 28.4957H120.777V14.6672H141.963V28.4957Z" fill="#EA5541"/>
<path d="M12.4723 97.5823V106.621C12.4723 108.075 13.669 109.268 15.1276 109.268H33.1722C34.6307 109.268 35.8274 108.075 35.8274 106.621V97.5823H12.4723Z" fill="#EA5541"/>
<path d="M115.485 97.5823V106.621C115.485 108.075 116.682 109.268 118.141 109.268H136.185C137.644 109.268 138.841 108.075 138.841 106.621V97.5823H115.485Z" fill="#EA5541"/>
</svg>
